<svg width="85" height="84" viewBox="0 0 85 84" fill="none" xmlns="http://www.w3.org/2000/svg">
<circle cx="42.5" cy="42" r="39" fill="white" stroke="#74E3CE" stroke-width="6"/>
<path d="M35.0538 38.9862C35.6317 38.7207 36.2221 38.3598 36.7224 37.9974L37.9367 39.2258L40.0842 37.0534L38.8601 35.8151C39.2146 35.3048 39.5518 34.7198 39.8092 34.1328L41.4392 34.5788L42.2238 31.6122L40.5752 31.1662C40.6369 30.5191 40.6332 29.8674 40.5659 29.2208L42.201 28.7776L41.4146 25.8091L39.7808 26.2678C39.5184 25.6832 39.1816 25.1057 38.823 24.5991L39.9982 23.4102L37.8507 21.2378L36.6657 22.4365C36.1613 22.078 35.5634 21.7171 34.9828 21.4567L35.4138 19.7979L32.4771 19L32.034 20.6654C31.3943 20.6029 30.7491 20.6052 30.1099 20.6734L29.6714 19.0188L26.737 19.8139L27.1709 21.4863C26.593 21.7519 26.0026 22.1123 25.5018 22.4751L24.3656 21.3256L22.2181 23.4981L23.3636 24.6569C23.0092 25.1672 22.6719 25.7523 22.4146 26.3397L20.7846 25.8937L20 28.8603L21.6486 29.3063C21.5868 29.9534 21.5905 30.6051 21.6579 31.2518L20.0228 31.6949L20.8092 34.6634L22.482 34.2442C22.7444 34.8288 23.0347 35.3589 23.4788 35.9524L22.3036 37.1413L24.4511 39.3137L25.6361 38.1149C26.1405 38.4735 26.6994 38.7944 27.2796 39.0552L26.8285 40.6943L29.7564 41.4828L30.1944 39.8123C30.8341 39.8748 31.477 39.8696 32.1162 39.8015L32.5538 41.4551L35.4877 40.6595L35.0538 38.9862ZM27.176 34.2179C25.002 32.0187 25.002 28.4534 27.176 26.2542C29.3499 24.0549 32.8743 24.0549 35.0483 26.2542C37.2222 28.4534 37.2222 32.0187 35.0483 34.2179C32.8743 36.4171 29.3499 36.4171 27.176 34.2179Z" fill="#0A0B16"/>
<path d="M66.4105 51.7341L66.4485 47.1876L63.9248 47.166C63.7761 46.2158 63.5323 45.283 63.1987 44.3822L65.3787 43.1336L63.1648 39.1768L60.9797 40.439C60.3893 39.6999 59.745 39.0288 58.9832 38.4005L60.2532 36.2187L56.38 33.9118L55.0998 36.1115C54.1828 35.7497 53.2709 35.503 52.3442 35.3475L52.3609 32.8141L47.8644 32.7742L47.8416 35.3268C46.9023 35.4772 45.9798 35.7234 45.0893 36.0608L43.855 33.8555L39.9433 36.0951L41.1854 38.3145C40.4547 38.9118 39.7765 39.589 39.1648 40.3437L37.0261 39.0697L34.7457 42.9879L36.9016 44.2717C36.5541 45.1815 36.3056 46.1124 36.1519 47.0499L33.6504 47.0283L33.6123 51.5748L36.1361 51.5964C36.2847 52.5466 36.5286 53.4793 36.8621 54.3802L34.6821 55.6288L36.896 59.5855L39.0993 58.3346C39.6897 59.0738 40.3521 59.7556 41.1144 60.3839L39.8444 62.5662L43.7176 64.873L44.9978 62.6733C45.9147 63.0352 46.808 63.2711 47.7347 63.4266L47.7087 65.9548L52.2007 65.9919L52.2211 63.4379C53.1604 63.2875 54.0815 63.0408 54.972 62.7034L56.2058 64.9088L60.1171 62.6686L58.875 60.4487C59.6056 59.8515 60.2839 59.1738 60.8952 58.4196L63.0705 59.7152L65.3509 55.797L63.1583 54.4911C63.5058 53.5813 63.7543 52.6504 63.9081 51.7129L66.4105 51.7341ZM57.1451 53.6184C54.8317 57.5935 49.7708 58.9191 45.8414 56.5785C41.9119 54.2378 40.602 49.1185 42.9153 45.1434C45.2286 41.1684 50.2896 39.8432 54.219 42.1834C58.1484 44.5236 59.4584 49.6434 57.1451 53.6184Z" fill="#0A0B16"/>
</svg>
