<svg width="85" height="84" viewBox="0 0 85 84" fill="none" xmlns="http://www.w3.org/2000/svg">
<circle cx="42.5" cy="42" r="39" fill="white" stroke="#74E3CE" stroke-width="6"/>
<path d="M42.6392 68.936C33.8803 68.4737 27.4705 64.4417 23.7056 56.4122C23.6443 56.2391 23.5394 56.0848 23.4011 55.9641C23.2628 55.8434 23.0956 55.7603 22.9158 55.723C21.2275 55.3054 19.7277 54.3344 18.6554 52.965C17.5832 51.5956 17.0004 49.9066 17 48.1674C17.0139 46.4368 17.603 44.76 18.6745 43.401C19.7461 42.0419 21.2391 41.0779 22.9187 40.6606C23.0925 40.6314 23.2555 40.5568 23.3912 40.4443C23.5269 40.3319 23.6304 40.1855 23.6912 40.0202C25.5064 35.7492 28.7196 32.2221 32.8034 30.0178C33.1681 29.8167 33.2025 29.676 33.0073 29.3199C31.2172 26.0327 29.4396 22.7378 27.6744 19.4352C27.6376 19.3357 27.571 19.25 27.4836 19.1899C27.3962 19.1297 27.2923 19.098 27.1862 19.0993C26.7438 19.0954 26.3156 18.9429 25.9703 18.6663C25.625 18.3898 25.3827 18.0052 25.2822 17.5743C25.1713 17.1392 25.2049 16.6798 25.3779 16.2654C25.5509 15.851 25.854 15.5041 26.2414 15.2769C26.6262 15.0601 27.069 14.9681 27.5083 15.0139C27.9477 15.0597 28.362 15.241 28.6939 15.5325C29.0349 15.8316 29.2649 16.2373 29.3462 16.6836C29.4275 17.1299 29.3555 17.5906 29.1419 17.9908C29.056 18.1254 29.0122 18.2826 29.0163 18.4423C29.0204 18.6019 29.0721 18.7567 29.1648 18.8868C30.9377 22.1414 32.6962 25.4086 34.4403 28.6882C34.6327 29.0471 34.7734 29.0816 35.1496 28.938C38.0606 27.7918 41.195 27.3262 44.3134 27.5767C46.9477 27.7724 49.5188 28.4786 51.8834 29.6559C52.2424 29.8368 52.297 29.6387 52.4147 29.4233L57.716 19.5788C57.7788 19.4426 57.8498 19.3103 57.9285 19.1826C58.2387 18.7432 58.3564 18.3526 58.052 17.7955C57.6414 17.0488 57.9802 15.9978 58.6493 15.4608C58.9953 15.1861 59.4182 15.0261 59.8593 15.0029C60.3003 14.9798 60.7376 15.0946 61.1104 15.3315C61.4735 15.5717 61.753 15.9187 61.9104 16.3245C62.0679 16.7304 62.0954 17.1752 61.9892 17.5973C61.8828 18.0184 61.6429 18.3938 61.3053 18.6671C60.9678 18.9404 60.5508 19.0971 60.1168 19.1136C60.0035 19.1072 59.8911 19.1364 59.7953 19.1972C59.6995 19.258 59.6251 19.3473 59.5827 19.4525C57.6548 23.046 55.7201 26.6338 53.7788 30.2159C53.6151 30.5174 53.6611 30.6381 53.9482 30.8276C57.5359 33.1356 60.3177 36.5014 61.9088 40.4596C61.9529 40.5812 62.0238 40.6913 62.1163 40.7818C62.2087 40.8723 62.3204 40.9407 62.4429 40.9822C63.8869 41.5559 65.1236 42.5531 65.9903 43.8427C66.857 45.1322 67.3133 46.6539 67.2991 48.2076C67.3131 49.7616 66.8571 51.2836 65.9911 52.5739C65.125 53.8643 63.8893 54.8629 62.4458 55.4387C62.329 55.4738 62.2214 55.5341 62.1305 55.6155C62.0397 55.6969 61.9679 55.7973 61.9203 55.9096C58.9624 62.8268 53.7932 67.0522 46.4127 68.5857C46.1255 68.6431 45.8556 68.6804 45.577 68.7149C44.6022 68.8392 43.6216 68.9131 42.6392 68.936ZM51.2172 56.5874C54.089 53.6352 55.2721 50.1144 54.6317 46.0308C54.1206 42.8736 52.3765 40.0487 49.7829 38.1773C47.1893 36.3059 43.9586 35.5412 40.8013 36.0514C39.2059 36.2989 37.6764 36.8643 36.3036 37.7139C34.9307 38.5635 33.7424 39.6801 32.8091 40.9975C31.8758 42.3148 31.2164 43.8062 30.8701 45.3831C30.5238 46.96 30.4977 48.5904 30.7931 50.1776C31.1006 51.8857 31.773 53.5074 32.7645 54.9318C33.7561 56.3562 35.0433 57.5499 36.5384 58.4313C38.0335 59.3128 39.7012 59.8611 41.4276 60.039C43.1541 60.2169 44.8985 60.0201 46.5419 59.4621C46.5419 59.4621 48.9399 58.9882 51.2172 56.5817V56.5874Z" fill="#0A0B16"/>
<path d="M35.4605 46.4536C35.4577 46.1753 35.5108 45.8993 35.6166 45.6419C35.7223 45.3845 35.8786 45.1509 36.0762 44.9549C36.2738 44.759 36.5086 44.6045 36.7669 44.5009C37.0251 44.3972 37.3016 44.3464 37.5798 44.3514C37.8626 44.3487 38.143 44.4024 38.4048 44.5092C38.6666 44.616 38.9045 44.7738 39.1047 44.9734C39.3049 45.1731 39.4634 45.4106 39.5709 45.6721C39.6783 45.9336 39.7327 46.2139 39.7308 46.4966C39.7133 47.0589 39.4807 47.5931 39.0811 47.989C38.6814 48.3849 38.1451 48.6124 37.5827 48.6246C37.3 48.6243 37.0201 48.5676 36.7596 48.4578C36.4991 48.348 36.2631 48.1872 36.0654 47.985C35.8678 47.7828 35.7124 47.5432 35.6086 47.2803C35.5047 47.0173 35.4543 46.7362 35.4605 46.4536Z" fill="#0A0B16" stroke="#0A0B16" stroke-width="0.963736" stroke-miterlimit="10"/>
<path d="M45.8378 46.4913C45.8295 46.2086 45.879 45.9271 45.9832 45.6642C46.0874 45.4012 46.2442 45.1623 46.4439 44.9621C46.6436 44.7618 46.8821 44.6044 47.1448 44.4995C47.4075 44.3945 47.6888 44.3443 47.9715 44.3518C48.534 44.3503 49.0743 44.5708 49.475 44.9656C49.8756 45.3603 50.1042 45.8973 50.111 46.4597C50.1014 47.0305 49.8706 47.5753 49.4672 47.9792C49.0638 48.3832 48.5193 48.6147 47.9486 48.625C47.3859 48.6213 46.8478 48.3945 46.4521 47.9945C46.0564 47.5945 45.8355 47.054 45.8378 46.4913Z" fill="#0A0B16" stroke="#0A0B16" stroke-width="0.963736" stroke-miterlimit="10"/>
</svg>
