<svg width="68" height="68" viewBox="0 0 68 68" fill="none" xmlns="http://www.w3.org/2000/svg">
<circle cx="34" cy="34" r="34" fill="#74E3CE" fill-opacity="0.3"/>
<path d="M34.0876 38.1834L33.2339 37.8841L20.135 33.291L21.143 44.7143C21.143 46.987 26.8994 48.8286 34.0002 48.8286C41.1009 48.8286 46.8573 46.987 46.8573 44.7143L47.8627 33.3178L34.9408 37.882L34.0876 38.1834Z" fill="#74E3CE"/>
<path d="M55.0729 49.8571C55.0091 49.149 54.6836 48.5179 54.195 48.0571C54.7422 47.5413 55.0857 46.8115 55.0857 46C55.0857 44.9015 54.4578 43.9516 53.5429 43.4826V28.5847L57.1429 27.3129L34.0844 19L10.8572 27.3129L34.0844 35.4571L50.9715 29.4925V43.4826C50.0565 43.9511 49.4286 44.9015 49.4286 46C49.4286 46.8115 49.7721 47.5413 50.3193 48.0571C49.8308 48.5179 49.5052 49.149 49.4415 49.8571H49.4286L48.9143 55H55.6L55.0857 49.8571H55.0729Z" fill="#74E3CE"/>
</svg>
