<svg width="85" height="84" viewBox="0 0 85 84" fill="none" xmlns="http://www.w3.org/2000/svg">
<circle cx="42.5" cy="42" r="39" fill="white" stroke="#74E3CE" stroke-width="6"/>
<path d="M58.289 42.8397C58.0793 42.7667 57.8346 42.7667 57.6248 42.7667C56.611 42.7667 55.7021 43.3508 55.1777 44.2635L51.7167 43.3873C52.1712 40.5397 51.2273 37.7286 49.4094 35.7937L52.9753 31.3762C53.7793 31.9238 54.7582 32.2159 55.772 32.2159C55.9118 32.2159 56.0517 32.2159 56.1915 32.1794C59.0931 31.9238 61.2256 29.2952 60.9809 26.2651C60.7711 23.454 58.3939 21.3 55.772 21.227C55.737 21.227 55.737 21.227 55.7021 21.227C55.6671 21.227 55.6671 21.227 55.6321 21.227C55.5273 21.227 55.4224 21.227 55.3175 21.227C52.4159 21.4825 50.2834 24.1111 50.5281 27.1413C50.633 28.3825 51.1224 29.5143 51.8566 30.3905L48.3257 34.8444C47.4867 34.2238 46.5078 33.7127 45.4591 33.4571C44.7948 33.2746 44.1306 33.2016 43.4664 33.2016C42.1379 33.2016 40.8794 33.5302 39.7258 34.1508L35.4258 26.6667C36.0551 26.0825 36.5445 25.3159 36.7542 24.4032C37.3136 22.0667 35.9152 19.6937 33.6778 19.1095C33.3283 19.0365 33.0136 19 32.664 19C30.7762 19 29.0632 20.3508 28.6088 22.3587C28.0844 24.6587 29.4478 27.0317 31.7201 27.6159C32.0697 27.6889 32.3844 27.7254 32.734 27.7254C33.2583 27.7254 33.7827 27.6159 34.2721 27.4333L38.5372 34.881C37.1738 35.9397 36.09 37.4 35.5307 39.1889L30.986 38.0206C30.9161 36.4508 29.8673 35.0635 28.3291 34.6619C28.0494 34.5889 27.7698 34.5524 27.4901 34.5524C25.9169 34.5524 24.4836 35.6841 24.0991 37.327C23.6446 39.2984 24.7982 41.2698 26.6511 41.7444C26.9307 41.8175 27.2104 41.854 27.4901 41.854C28.9234 41.854 30.2519 40.9048 30.7762 39.4444L35.216 40.5762C34.7616 43.4603 35.7055 46.2714 37.5233 48.2064L33.2583 53.5C32.6291 53.0984 31.8949 52.8794 31.1258 52.8794C31.021 52.8794 30.8811 52.8794 30.7762 52.8794C28.4689 53.0619 26.7559 55.1794 26.9307 57.5889C27.1055 59.8889 28.9584 61.6048 31.0909 61.6048C31.1958 61.6048 31.3356 61.6048 31.4405 61.6048C33.7478 61.4222 35.4608 59.3048 35.286 56.8952C35.216 55.946 34.8665 55.1063 34.3071 54.4127L38.5721 49.1556C39.4111 49.7762 40.39 50.2873 41.4388 50.5429C42.103 50.7254 42.7672 50.7984 43.4314 50.7984C44.7599 50.7984 46.0184 50.4698 47.172 49.8492L51.507 57.3333C50.8777 57.9175 50.3883 58.6841 50.1785 59.5968C49.6192 61.9333 51.0175 64.3064 53.2549 64.8905C53.6045 64.9635 53.9192 65 54.2687 65C56.1565 65 57.8695 63.6492 58.324 61.6413C58.8833 59.3048 57.485 56.9317 55.2476 56.3476C54.898 56.2746 54.5834 56.2381 54.2338 56.2381C53.7094 56.2381 53.185 56.3476 52.6956 56.5302L48.3956 49.119C49.759 48.0603 50.8428 46.6 51.4021 44.8111L54.8281 45.6873C54.8281 47.0381 55.6671 48.2429 56.9606 48.5714C57.1703 48.6444 57.4151 48.6444 57.6248 48.6444C58.8833 48.6444 60.037 47.7317 60.3516 46.4175C60.7362 44.8476 59.7923 43.2413 58.289 42.8397Z" fill="#0A0B16"/>
</svg>
