<svg width="68" height="68" viewBox="0 0 68 68" fill="none" xmlns="http://www.w3.org/2000/svg">
<circle cx="34" cy="34" r="34" fill="#5C87DC" fill-opacity="0.3"/>
<path d="M34.0002 34C34.7335 34 35.3335 34.6 35.3335 35.3334C35.3335 35.7 35.6335 36 36.0002 36C36.3668 36 36.6668 35.7 36.6668 35.3334C36.6668 34.0934 35.8135 33.06 34.6668 32.76V32C34.6668 31.6334 34.3668 31.3334 34.0002 31.3334C33.6335 31.3334 33.3335 31.6334 33.3335 32V32.76C32.1868 33.06 31.3335 34.0934 31.3335 35.3334C31.3335 36.8067 32.5268 38 34.0002 38C34.7335 38 35.3335 38.6 35.3335 39.3334C35.3335 40.0667 34.7335 40.6667 34.0002 40.6667C33.2668 40.6667 32.6668 40.0667 32.6668 39.3334C32.6668 38.9667 32.3668 38.6667 32.0002 38.6667C31.6335 38.6667 31.3335 38.9667 31.3335 39.3334C31.3335 40.5734 32.1868 41.6067 33.3335 41.9067V42.6667C33.3335 43.0334 33.6335 43.3334 34.0002 43.3334C34.3668 43.3334 34.6668 43.0334 34.6668 42.6667V41.9067C35.8135 41.6067 36.6668 40.5734 36.6668 39.3334C36.6668 37.86 35.4735 36.6667 34.0002 36.6667C33.2668 36.6667 32.6668 36.0667 32.6668 35.3334C32.6668 34.6 33.2668 34 34.0002 34Z" fill="#5C87DC"/>
<path d="M49.9749 28.18C49.8949 28.4667 49.6349 28.6667 49.3349 28.6667H47.3349V30.6667C47.3349 31.0333 47.0349 31.3333 46.6682 31.3333H41.3349C40.9682 31.3333 40.6682 31.0333 40.6682 30.6667V28.6667H27.3349V30.6667C27.3349 31.0333 27.0349 31.3333 26.6682 31.3333H21.3349C20.9682 31.3333 20.6682 31.0333 20.6682 30.6667V28.6667H18.6682C18.3682 28.6667 18.1082 28.4667 18.0282 28.18C17.9482 27.8933 18.0682 27.5867 18.3216 27.4333L33.6549 18.1C33.8682 17.9667 34.1349 17.9667 34.3482 18.1L49.6816 27.4333C49.9349 27.5867 50.0549 27.8933 49.9749 28.18Z" fill="#5C87DC"/>
<path d="M50 46.6667V49.3334C50 49.7 49.7 50 49.3333 50H18.6667C18.3 50 18 49.7 18 49.3334V46.6667C18 46.3 18.3 46 18.6667 46H20.6667V44C20.6667 43.6334 20.9667 43.3334 21.3333 43.3334H26.6667C27.0333 43.3334 27.3333 43.6334 27.3333 44V46H40.6667V44C40.6667 43.6334 40.9667 43.3334 41.3333 43.3334H46.6667C47.0333 43.3334 47.3333 43.6334 47.3333 44V46H49.3333C49.7 46 50 46.3 50 46.6667Z" fill="#5C87DC"/>
<path d="M46.6668 32.6666H41.3335V42H46.6668V32.6666Z" fill="#5C87DC"/>
<path d="M26.6668 32.6666H21.3335V42H26.6668V32.6666Z" fill="#5C87DC"/>
</svg>
