<svg width="68" height="68" viewBox="0 0 68 68" fill="none" xmlns="http://www.w3.org/2000/svg">
<circle cx="34" cy="34" r="34" fill="#74E3CE" fill-opacity="0.3"/>
<path d="M50.0628 39.1889H46.4335L48.3811 37.2875C50.3405 35.3746 51.4196 32.8315 51.4196 30.1267C51.4196 27.4219 50.3405 24.8792 48.3811 22.9663C46.4222 21.0534 43.8171 20.0004 41.047 20.0004C38.2764 20.0004 35.6718 21.0534 33.7124 22.9663L33.2102 23.4574L32.7071 22.9663C30.7477 21.0534 28.1427 20 25.3726 20C22.6029 20 19.9978 21.0534 18.038 22.9663C16.0786 24.8792 15 27.4219 15 30.1271C15 32.8319 16.0786 35.3746 18.038 37.2871L32.3724 51.2815C32.6035 51.5067 32.9067 51.6189 33.2098 51.6189C33.5129 51.6189 33.816 51.5063 34.0467 51.2815L37.8534 47.5652V51.1088C37.8534 52.1515 38.7225 53 39.7906 53H43.9216C44.9903 53 45.8593 52.1515 45.8593 51.1088V47.0047H50.0628C51.1309 47.0047 52 46.1563 52 45.1131V41.0806C52.0005 40.0374 51.1314 39.1889 50.0628 39.1889ZM20.7326 30.1368C20.7163 30.3537 20.7154 30.5736 20.729 30.7905L18.9225 30.8983C18.9039 30.6037 18.9057 30.3047 18.9274 30.0101C18.9754 29.3608 19.1202 28.7244 19.3568 28.1179L21.0475 28.7478C20.8742 29.1925 20.7683 29.6598 20.7326 30.1368ZM25.7168 25.6123C24.3822 25.6123 23.1272 26.1198 22.1835 27.0411L20.904 25.7917C22.1898 24.5369 23.899 23.8456 25.7168 23.8456V25.6123ZM50.1908 45.1131C50.1908 45.182 50.1338 45.238 50.0632 45.238H44.0501V51.1088C44.0501 51.1777 43.9927 51.2333 43.9221 51.2333H39.7911C39.7205 51.2333 39.6635 51.1777 39.6635 51.1088V45.238H33.6495C33.5789 45.238 33.5219 45.182 33.5219 45.1131V41.0806C33.5219 41.0117 33.5789 40.9556 33.6495 40.9556H39.663V35.0849C39.663 35.016 39.7201 34.9603 39.7906 34.9603H43.9216C43.9922 34.9603 44.0497 35.016 44.0497 35.0849V40.9556H50.0628C50.1333 40.9556 50.1903 41.0117 50.1903 41.0806V45.1131H50.1908Z" fill="#74E3CE"/>
</svg>
