<svg width="84" height="84" viewBox="0 0 84 84" fill="none" xmlns="http://www.w3.org/2000/svg">
<circle cx="42" cy="42" r="39" fill="white" stroke="#74E3CE" stroke-width="6"/>
<path d="M64.8355 39.7414C64.817 39.7431 64.0451 39.8098 63.1459 39.7236C63.5736 39.0284 63.7662 38.2004 63.5382 37.2373C63.1481 35.5813 61.7666 34.9787 60.6074 35.238C59.4275 35.5025 58.3469 36.6887 58.6657 38.3689C58.8257 39.2078 59.2372 39.8248 59.7783 40.2779C59.3068 40.4946 58.9492 40.6769 58.9492 40.6769C57.8288 38.3827 56.1312 36.3558 54.0245 34.7262C52.0014 37.7519 48.6075 39.7391 44.7566 39.7391C39.7746 39.7391 35.5572 36.4127 34.0893 31.8127C33.4297 32.0519 32.7859 32.3187 32.1656 32.6183C31.9174 32.2779 31.625 31.9657 31.2842 31.6891C28.5426 29.461 23.7577 30.6173 21.18 32.8391L26.3708 36.9268C25.0157 38.4384 23.9491 40.275 23.2513 42H20V51.2H22.8865C23.5455 53.5 24.7501 55.6419 26.3882 57.4635L24.4908 65H35.7178V63.1543C37.4018 63.6303 39.4064 63.8897 41.3605 63.8897C43.5003 63.8897 45.565 63.5487 47.4859 62.9817L46.9448 65H58.1717V55.0583C59.8558 52.7203 60.4458 50.0517 60.4458 47.2147C60.4458 45.4649 60.1494 43.7802 59.5779 42.1966C60.2268 41.9885 60.9807 41.6688 61.665 41.2025C63.248 41.6262 64.8776 41.4698 65 41.4572L64.8355 39.7414ZM31.7883 45.45C30.8582 45.45 30.1043 44.6778 30.1043 43.725C30.1043 42.7722 30.8582 42 31.7883 42C32.7185 42 33.4724 42.7722 33.4724 43.725C33.4724 44.6778 32.7185 45.45 31.7883 45.45ZM61.3361 39.2607C60.823 39.0014 60.4295 38.6144 60.3195 38.0388C60.1791 37.3046 60.6613 36.9923 60.9673 36.9239C61.0155 36.9124 61.079 36.9032 61.1514 36.9032C61.4034 36.9032 61.7554 37.024 61.9025 37.6427C62.0529 38.2798 61.7745 38.822 61.3361 39.2607ZM44.6994 19C39.7393 19 35.7178 23.1193 35.7178 28.2C35.7178 33.2807 39.7393 37.4 44.6994 37.4C49.6594 37.4 53.681 33.2807 53.681 28.2C53.681 23.1193 49.6594 19 44.6994 19ZM47.4601 31.7299C46.9829 32.2112 46.3834 32.5091 45.2607 32.6235V33.95H44.138V32.6649C43.0153 32.6189 42.454 32.3946 41.3313 31.9915V29.7094C41.8926 29.9802 42.3827 30.2056 42.9923 30.3867C43.6008 30.5678 44.1206 30.6581 44.5809 30.6581C44.9604 30.6581 45.2321 30.611 45.4078 30.5173C45.5852 30.4229 45.6705 30.266 45.6705 30.0463C45.6705 29.8951 45.6054 29.7669 45.4768 29.6616C45.3483 29.5564 45.135 29.4368 44.8375 29.304C44.5399 29.1712 44.1386 29.0107 43.6322 28.8227C43.0642 28.6071 42.6067 28.3656 42.2569 28.0977C41.9083 27.8297 41.6535 27.5296 41.4946 27.1972C41.3363 26.8654 41.2572 26.452 41.2572 25.9569C41.2572 25.2008 41.5109 24.6097 41.9847 24.1836C42.4607 23.7575 43.0153 23.4936 44.138 23.393V22.45H45.2607V23.3781C46.3834 23.4286 47.1631 23.6529 48.0675 24.0514L47.3259 26.011C46.3918 25.5797 45.5779 25.3647 44.8257 25.3647C44.467 25.3647 44.2301 25.4095 44.0847 25.4987C43.9393 25.5878 43.8736 25.72 43.8736 25.8942C43.8736 26.0455 43.9298 26.1702 44.0347 26.2691C44.1403 26.3675 44.3244 26.4773 44.5843 26.5992C44.8442 26.7205 45.204 26.8614 45.666 27.0218C46.6001 27.3611 47.2726 27.7469 47.6796 28.1804C48.0865 28.6134 48.2331 29.1718 48.2331 29.8543C48.2325 30.6231 47.9361 31.2486 47.4601 31.7299Z" fill="#0A0B16"/>
</svg>
