<svg width="85" height="85" viewBox="0 0 85 85" fill="none" xmlns="http://www.w3.org/2000/svg">
<circle cx="42.5" cy="42.5" r="39" fill="white" stroke="#74E3CE" stroke-width="6"/>
<path d="M59 21.5H26C24.4093 21.5018 22.8842 22.1345 21.7594 23.2594C20.6345 24.3842 20.0018 25.9093 20 27.5V51.8244C20.0018 53.4151 20.6345 54.9402 21.7594 56.065C22.8842 57.1899 24.4093 57.8226 26 57.8244H34.1834V62.1537H30.3821C29.9843 62.1537 29.6027 62.3118 29.3214 62.5931C29.0401 62.8744 28.8821 63.2559 28.8821 63.6537C28.8821 64.0516 29.0401 64.4331 29.3214 64.7144C29.6027 64.9957 29.9843 65.1537 30.3821 65.1537H54.6179C55.0157 65.1537 55.3973 64.9957 55.6786 64.7144C55.9599 64.4331 56.1179 64.0516 56.1179 63.6537C56.1179 63.2559 55.9599 62.8744 55.6786 62.5931C55.3973 62.3118 55.0157 62.1537 54.6179 62.1537H50.8166V57.8244H59C60.5907 57.8226 62.1158 57.1899 63.2406 56.065C64.3655 54.9402 64.9982 53.4151 65 51.8244V27.5C64.9982 25.9093 64.3655 24.3842 63.2406 23.2594C62.1158 22.1345 60.5907 21.5018 59 21.5ZM47.8166 62.1538H37.1834V57.8244H47.8166V62.1538ZM62 51.8244C61.9992 52.6198 61.6829 53.3824 61.1204 53.9448C60.558 54.5073 59.7954 54.8236 59 54.8244H26C25.2046 54.8236 24.442 54.5073 23.8796 53.9448C23.3171 53.3824 23.0008 52.6198 23 51.8244V27.5C23.0008 26.7046 23.3171 25.942 23.8796 25.3796C24.442 24.8171 25.2046 24.5008 26 24.5H59C59.7954 24.5008 60.558 24.8171 61.1204 25.3796C61.6829 25.942 61.9992 26.7046 62 27.5V51.8244Z" fill="#0A0B16"/>
<path d="M39.5044 35.8289C39.22 35.5508 38.8367 35.3971 38.439 35.4015C38.0412 35.4059 37.6615 35.568 37.3833 35.8523C36.3792 36.8658 35.8159 38.2347 35.8159 39.6613C35.8159 41.0879 36.3792 42.4568 37.3833 43.4703C37.5205 43.6133 37.6847 43.7277 37.8664 43.8069C38.0481 43.8861 38.2437 43.9285 38.4419 43.9317C38.6401 43.9349 38.8369 43.8987 39.0211 43.8253C39.2052 43.7519 39.373 43.6428 39.5147 43.5042C39.6564 43.3656 39.7692 43.2003 39.8466 43.0178C39.924 42.8354 39.9645 42.6394 39.9658 42.4411C39.967 42.2429 39.9289 42.0464 39.8537 41.863C39.7786 41.6796 39.6678 41.5129 39.5278 41.3726C39.3022 41.1484 39.1232 40.8817 39.001 40.588C38.8788 40.2943 38.8159 39.9794 38.8159 39.6613C38.8159 39.3432 38.8788 39.0283 39.001 38.7346C39.1232 38.4409 39.3022 38.1742 39.5278 37.95C39.6656 37.8092 39.7743 37.6427 39.8477 37.4599C39.9211 37.2771 39.9577 37.0816 39.9556 36.8846C39.9534 36.6876 39.9124 36.493 39.835 36.3119C39.7576 36.1307 39.6452 35.9666 39.5044 35.8289Z" fill="#0A0B16"/>
<path d="M33.7161 39.6615C33.7114 38.6773 33.9031 37.702 34.2802 36.7928C34.6572 35.8836 35.212 35.0588 35.9119 34.3668C36.0518 34.2281 36.1631 34.0632 36.2393 33.8815C36.3155 33.6998 36.3552 33.5049 36.3561 33.3079C36.357 33.1108 36.319 32.9156 36.2444 32.7332C36.1699 32.5508 36.0601 32.3849 35.9214 32.245C35.7827 32.1051 35.6178 31.9938 35.4361 31.9176C35.2544 31.8414 35.0595 31.8017 34.8624 31.8008C34.6654 31.7999 34.4701 31.8378 34.2878 31.9124C34.1054 31.987 33.9395 32.0968 33.7996 32.2355C32.8222 33.2094 32.0467 34.3667 31.5176 35.6409C30.9884 36.9152 30.7161 38.2814 30.7161 39.6611C30.7161 41.0409 30.9884 42.4071 31.5176 43.6813C32.0467 44.9556 32.8222 46.1129 33.7996 47.0868C33.9395 47.2255 34.1054 47.3353 34.2878 47.4098C34.4701 47.4844 34.6654 47.5224 34.8624 47.5215C35.0595 47.5206 35.2544 47.4809 35.4361 47.4047C35.6178 47.3285 35.7827 47.2172 35.9214 47.0773C36.0601 46.9373 36.1699 46.7714 36.2444 46.5891C36.319 46.4067 36.357 46.2114 36.3561 46.0144C36.3552 45.8174 36.3155 45.6224 36.2393 45.4407C36.1631 45.259 36.0518 45.0941 35.9119 44.9555C35.212 44.2636 34.6573 43.4389 34.2802 42.5299C33.9032 41.6208 33.7114 40.6456 33.7161 39.6615Z" fill="#0A0B16"/>
<path d="M42.5 41.1611C43.3284 41.1611 44 40.4896 44 39.6611C44 38.8327 43.3284 38.1611 42.5 38.1611C41.6716 38.1611 41 38.8327 41 39.6611C41 40.4896 41.6716 41.1611 42.5 41.1611Z" fill="#0A0B16"/>
<path d="M47.6167 35.852C47.4795 35.7088 47.3153 35.5943 47.1335 35.5149C46.9518 35.4356 46.7561 35.3931 46.5579 35.3898C46.3596 35.3866 46.1626 35.4227 45.9784 35.4961C45.7942 35.5695 45.6263 35.6787 45.4846 35.8173C45.3428 35.956 45.23 36.1214 45.1525 36.3039C45.0751 36.4865 45.0346 36.6826 45.0335 36.8809C45.0323 37.0792 45.0705 37.2758 45.1458 37.4592C45.2211 37.6427 45.332 37.8094 45.4721 37.9497C45.6978 38.1739 45.8768 38.4405 45.999 38.7342C46.1211 39.0279 46.184 39.3429 46.184 39.661C46.184 39.9791 46.1211 40.294 45.999 40.5877C45.8768 40.8814 45.6978 41.148 45.4721 41.3723C45.3322 41.5126 45.2214 41.6793 45.1462 41.8627C45.0711 42.0461 45.033 42.2426 45.0342 42.4408C45.0354 42.639 45.0759 42.835 45.1533 43.0175C45.2308 43.2 45.3436 43.3653 45.4853 43.5039C45.627 43.6425 45.7948 43.7516 45.9789 43.825C46.163 43.8984 46.3599 43.9345 46.5581 43.9314C46.7562 43.9282 46.9518 43.8858 47.1335 43.8066C47.3152 43.7274 47.4795 43.613 47.6167 43.4699C48.6207 42.4565 49.184 41.0876 49.184 39.661C49.184 38.2344 48.6207 36.8654 47.6167 35.852V35.852Z" fill="#0A0B16"/>
<path d="M49.0782 32.245C48.7983 32.5277 48.642 32.91 48.6438 33.3079C48.6456 33.7058 48.8053 34.0866 49.0878 34.3668C49.7838 35.0616 50.3361 35.8869 50.7129 36.7954C51.0896 37.7038 51.2836 38.6777 51.2836 39.6612C51.2836 40.6447 51.0896 41.6185 50.7129 42.527C50.3361 43.4354 49.7838 44.2607 49.0878 44.9555C48.8051 45.2356 48.6454 45.6165 48.6436 46.0144C48.6418 46.4123 48.7981 46.7947 49.0783 47.0773C49.3584 47.3599 49.7393 47.5197 50.1372 47.5215C50.5351 47.5233 50.9174 47.3669 51.2001 47.0868C52.1774 46.1129 52.9529 44.9556 53.4821 43.6814C54.0112 42.4071 54.2836 41.0409 54.2836 39.6612C54.2836 38.2814 54.0112 36.9152 53.4821 35.6409C52.9529 34.3667 52.1774 33.2094 51.2001 32.2355C51.0601 32.0968 50.8942 31.987 50.7119 31.9124C50.5295 31.8378 50.3342 31.7999 50.1372 31.8008C49.9402 31.8017 49.7452 31.8414 49.5635 31.9176C49.3818 31.9938 49.2169 32.1051 49.0782 32.245Z" fill="#0A0B16"/>
</svg>
