<svg width="68" height="68" viewBox="0 0 68 68" fill="none" xmlns="http://www.w3.org/2000/svg">
<circle cx="34" cy="34" r="34" fill="#5C87DC" fill-opacity="0.3"/>
<path d="M16.0593 25.317L19.693 15.6765C19.7996 15.2899 20.1487 15 20.5689 15H47.4252V15.006C47.7862 15.006 48.1294 15.2295 48.2655 15.598L51.9347 25.317C52.5798 26.6398 53 27.3707 53 29.0922C53 30.3728 52.6627 31.5748 52.0827 32.6137V52.0758C52.0827 52.5832 51.6743 53 51.1772 53H16.8169C16.3197 53 15.9114 52.5832 15.9114 52.0758V32.6137C15.3314 31.5748 15 30.3728 15 29.0922C15 27.7512 15.3728 26.4344 16.0593 25.317ZM46.3658 39.8501L38.6901 39.8863V44.3562H46.4724V39.8863C46.4487 39.8622 46.4073 39.8501 46.3658 39.8501ZM51.1299 28.3069L46.8097 16.8484H40.9389L40.933 29.0922H40.9389C40.9389 34.154 47.4074 36.5158 50.4375 31.8285C51.0529 30.8801 51.3015 29.4969 51.1299 28.3069ZM31.6772 51.1516C31.8014 48.6811 31.6476 45.7576 31.6476 43.3112C31.6476 40.1219 27.9902 38.4669 25.8242 40.7441C25.2028 41.3964 24.8181 42.3085 24.8181 43.3112V51.1516H31.6772ZM39.1339 16.8484H28.8779L28.8838 28.2284H28.8897C28.8897 30.0405 29.0081 31.4057 30.3811 32.8191C33.5709 36.099 39.128 33.7795 39.128 29.0922H39.1339V16.8484ZM27.0729 16.8484H21.1844L16.8642 28.3069C16.5209 29.6419 17.1897 31.6654 18.3082 32.8131C21.5276 36.099 27.0788 33.7795 27.0788 29.0922V28.2284H27.0847L27.0729 16.8484Z" fill="#5C87DC"/>
</svg>
