<svg width="84" height="84" viewBox="0 0 84 84" fill="none" xmlns="http://www.w3.org/2000/svg">
<circle cx="42" cy="42" r="39" fill="white" stroke="#74E3CE" stroke-width="6"/>
<path fill-rule="evenodd" clip-rule="evenodd" d="M47.0248 63.1297V66.5408C47.0248 67.0854 46.5835 67.5316 46.0431 67.5316C45.1921 67.5316 44.5221 67.8244 44.0848 68.5976C43.4779 69.6718 41.9787 70.4311 40.2267 70.4311C38.4742 70.4311 36.9761 69.6712 36.3681 68.5976C35.9852 67.9211 35.3221 67.5316 34.5502 67.5316C33.9461 67.5316 33.4292 67.2087 33.4292 66.5408V63.1297C32.8618 63.1297 32.3976 62.6615 32.3976 62.0892V61.0365C32.3976 60.4635 32.8613 59.9953 33.4292 59.9953H47.0243C47.5916 59.9953 48.0553 60.4641 48.0553 61.0365V62.0892C48.0553 62.6615 47.5916 63.1297 47.0243 63.1297H47.0248ZM55.1554 39.5839C55.3921 37.3407 56.7354 35.5478 58.5 34.8203C58.2857 33.2676 57.9068 31.7681 57.3784 30.349C55.5382 30.7645 53.5616 30.0255 52.3197 28.2517C51.0789 26.4778 50.9041 24.1409 51.6927 22.2218C50.5912 21.3132 49.3854 20.5464 48.0948 19.9497C47.438 21.0591 46.4546 21.8833 45.3181 22.2751C44.7078 22.4851 44.0734 22.0129 44.0734 21.3618V19.3062C44.0734 19.1377 43.9381 19.0012 43.7713 19.0012H41.8922C41.7254 19.0012 41.5901 19.1377 41.5901 19.3062V21.9614C41.5901 21.9614 41.5901 27.1793 41.5901 28.0838C41.5901 28.9884 42.5128 29.0156 42.5128 29.0156C46.8076 29.5903 49.876 33.9754 49.3665 38.8124C48.9229 43.0216 45.9153 46.1792 42.3117 46.5507C42.3117 46.5507 41.5901 46.4598 41.5901 47.3696C41.5901 48.2794 41.5901 53.5858 41.5901 53.5858V55.9494C41.5901 56.428 41.9741 56.8157 42.4481 56.8157C44.1175 56.8157 45.7864 56.5472 47.3372 55.9227C47.622 55.8082 47.9034 55.6849 48.1819 55.5541C47.814 53.4811 48.469 51.2541 50.0445 49.857C51.6199 48.4582 53.6951 48.262 55.399 49.1498C56.2076 47.9096 56.8873 46.5513 57.418 45.0981C55.8546 43.925 54.9198 41.8294 55.1565 39.5845L55.1554 39.5839ZM39.9895 19C31.138 19.1296 24 26.4055 24 35.3747C24 40.7923 26.6042 45.5969 30.6176 48.5797C32.3013 49.831 33.2114 51.6482 33.2114 53.7594V57.1659C33.2114 57.7562 33.6882 58.2377 34.2728 58.2377H39.99V19H39.9895Z" fill="#0A0B16"/>
</svg>
