<svg width="68" height="68" viewBox="0 0 68 68" fill="none" xmlns="http://www.w3.org/2000/svg">
<circle cx="34" cy="34" r="34" fill="#5C87DC" fill-opacity="0.3"/>
<path d="M22.1112 46.0234C21.3519 45.2642 20.3166 44.85 19.2812 44.781H19.2122H19.1432H19.0741H19.0051H18.9361H18.8671H18.798H18.729C17.8317 44.85 16.7273 45.3332 16.1061 46.0234H16.0371V46.0925H15.9681L15.8991 46.1615V46.2305H15.83V46.2995L15.761 46.3685L15.692 46.5066H15.623V46.5756L15.5539 46.6446C15.0708 47.3349 14.7947 48.1632 14.7947 48.9914C14.7947 50.1648 15.2778 51.2692 16.1061 52.0285C16.8654 52.7877 17.9007 53.2709 19.0741 53.2709C20.2475 53.2709 21.3519 52.7877 22.1112 52.0285C22.8704 51.2692 23.3536 50.1648 23.3536 48.9914C23.3536 47.8871 22.9394 46.9207 22.2492 46.1615H22.1802V46.0925L22.1112 46.0234ZM19.0741 46.2995C19.8334 46.2995 20.5236 46.5756 21.0068 47.0588C21.49 47.611 21.8351 48.2322 21.8351 48.9914C21.8351 49.7507 21.49 50.4409 21.0068 50.9931C20.5236 51.4763 19.8334 51.7524 19.0741 51.7524C18.3149 51.7524 17.6246 51.4763 17.1415 50.9931C16.6583 50.4409 16.3132 49.7507 16.3132 48.9914C16.3132 48.2322 16.6583 47.611 17.1415 47.0588C17.6246 46.5756 18.3149 46.2995 19.0741 46.2995Z" fill="#5C87DC"/>
<path d="M20.0404 48.0253C19.8333 47.8182 19.4882 47.6802 19.0741 47.6802C18.729 47.6802 18.3838 47.8182 18.1077 48.0253C17.9007 48.3014 17.6936 48.6465 17.6936 48.9916C17.6936 49.4058 17.9007 49.7509 18.1077 49.958C18.3838 50.234 18.729 50.3721 19.0741 50.3721C19.4882 50.3721 19.8333 50.234 20.0404 49.958C20.3165 49.7509 20.4545 49.4058 20.4545 48.9916C20.4545 48.6465 20.3165 48.3014 20.0404 48.0253Z" fill="#5C87DC"/>
<path d="M28.6683 21.4512H18.867V38.707H15.6919V44.574L15.968 44.2979C19.4882 42.0202 24.1128 44.1599 24.6649 48.2323H31.9124C32.3266 45.4023 34.6734 43.4697 37.4343 43.4006V41.468L28.6683 21.4512Z" fill="#5C87DC"/>
<path d="M41.3687 44.9191L41.5067 45.0571C42.335 45.8854 42.8872 46.9898 43.0942 48.2322H53.7239V46.9898H43.0252V24.5571H41.3687V44.9191Z" fill="#5C87DC"/>
<path d="M38.0555 44.781H37.9865H37.9175H37.8485H37.7794H37.7104H37.6414H37.5724H37.5033H37.4343H37.3653C35.1565 44.85 33.2239 46.6446 33.2239 48.9914C33.2239 50.1648 33.707 51.2692 34.4663 52.0285C35.2256 52.7877 36.3299 53.2709 37.5033 53.2709C38.6767 53.2709 39.7121 52.7877 40.5404 52.0285C41.2996 51.2692 41.7828 50.1648 41.7828 48.9914C41.7828 46.9207 40.1952 45.0571 38.0555 44.781ZM40.2643 48.9914C40.2643 49.7507 39.9192 50.4409 39.436 50.9931C38.9528 51.4763 38.2626 51.7524 37.5033 51.7524C36.7441 51.7524 36.0538 51.4763 35.5707 50.9931C35.0875 50.4409 34.7424 49.7507 34.7424 48.9914C34.7424 45.4022 40.2643 45.4022 40.2643 48.9914Z" fill="#5C87DC"/>
<path d="M38.4696 48.0252C37.9174 47.5421 37.0891 47.5421 36.5369 48.0252C36.2608 48.3013 36.1228 48.6464 36.1228 48.9915C36.1228 49.4057 36.2608 49.7508 36.5369 49.9579C36.813 50.234 37.0891 50.372 37.5033 50.372C37.8484 50.372 38.1935 50.234 38.4696 49.9579C38.6767 49.7508 38.8837 49.4057 38.8837 48.9915C38.8837 48.6464 38.6767 48.3013 38.4696 48.0252Z" fill="#5C87DC"/>
<path d="M52.6196 38.0859H46.6836V43.6768H52.6196V38.0859Z" fill="#5C87DC"/>
<path d="M45.9932 36.7053H53.9999V45.0572H45.303V36.7053H45.9932Z" fill="#5C87DC"/>
<path d="M52.6196 28.7676H46.6836V34.4275H52.6196V28.7676Z" fill="#5C87DC"/>
<path d="M45.9932 27.3872H53.9999V35.8081H45.303V27.3872H45.9932Z" fill="#5C87DC"/>
<path d="M52.6196 19.3804H46.6836V24.9713H52.6196V19.3804Z" fill="#5C87DC"/>
<path d="M45.9932 18H53.9999V26.3518H45.303V18H45.9932Z" fill="#5C87DC"/>
</svg>
