<svg width="85" height="85" viewBox="0 0 85 85" fill="none" xmlns="http://www.w3.org/2000/svg">
<circle cx="42.5" cy="42.5" r="39" fill="white" stroke="#74E3CE" stroke-width="6"/>
<path fill-rule="evenodd" clip-rule="evenodd" d="M42.5 20C30.0815 20 20 30.0815 20 42.5C20 54.9185 30.0815 65 42.5 65C54.9185 65 65 54.9185 65 42.5C65 30.0815 54.9185 20 42.5 20ZM42.5 23C53.2625 23 62 31.7375 62 42.5C62 53.2625 53.2625 62 42.5 62C31.7375 62 23 53.2625 23 42.5C23 31.7375 31.7375 23 42.5 23ZM42.5 26C33.3935 26 26 33.3935 26 42.5C26 51.6065 33.3935 59 42.5 59C51.6065 59 59 51.6065 59 42.5C59 33.3935 51.6065 26 42.5 26ZM48.5 29C43.946 29 40.25 32.696 40.25 37.25C40.25 41.804 43.946 45.5 48.5 45.5C53.054 45.5 56.75 41.804 56.75 37.25C56.75 32.696 53.054 29 48.5 29Z" fill="#0A0B16"/>
</svg>
