<svg width="1920" height="333" viewBox="0 0 1920 333" fill="none" xmlns="http://www.w3.org/2000/svg">
<path d="M-31 84.3078C-4.5 106.974 75.2 149.808 182 139.808C315.5 127.308 440.5 144.308 560.5 233.308C680.5 322.308 903.5 375.308 1055 188.808C1206.5 2.3078 1340 119.308 1465.5 116.308C1591 113.308 1650.5 186 1753.5 63.5C1856.5 -59 2034 35.5 2070 73" stroke="#74E3CE" stroke-width="5"/>
<path d="M-97 35.1215C-66.6667 29.6215 12.2 31.5215 85 83.1215C176 147.622 280 219.122 411 204.122C542 189.122 606.5 204.122 671 283.622C735.5 363.122 853 333.122 927.5 268.622C1002 204.122 1078 177.622 1205.5 204.122C1333 230.622 1431 125.121 1479 96.6215C1527 68.1215 1695.5 -57.3785 1886 134.621" stroke="white" stroke-width="3"/>
</svg>
