<svg width="160" height="119" viewBox="0 0 160 119" fill="none" xmlns="http://www.w3.org/2000/svg">
<path d="M2.20271 119C0.734237 108.716 0 99.9012 0 92.5556C0 84.6222 0.734237 75.9543 2.20271 66.5519C5.72705 46.5716 13.8036 30.558 26.4325 18.5111C39.0614 6.17038 55.5083 0 75.7732 0L70.9273 27.7667C55.6551 27.7667 46.1101 37.7568 42.292 57.737L41.4109 64.3482H69.6056L59.9137 119H2.20271ZM85.9057 119C84.4372 108.716 83.703 99.9012 83.703 92.5556C83.703 84.6222 84.4372 75.9543 85.9057 66.5519C89.7237 46.5716 97.8003 30.558 110.135 18.5111C122.764 6.17038 139.211 0 159.476 0L154.63 27.7667C139.358 27.7667 129.813 37.7568 125.995 57.737L125.114 64.3482H152.868L143.617 119H85.9057Z" fill="#74E3CE"/>
</svg>
